{
  "accessors": [
    {
      "bufferView": 3,
      "componentType": 5126,
      "count": 11208,
      "max": [
        0.6467890739440918,
        2.0204689502716064,
        0.6279616355895996
      ],
      "min": [
        -0.6467890739440918,
        0.6065657734870911,
        -0.6279621124267578
      ],
      "type": "VEC3"
    },
    {
      "bufferView": 3,
      "byteOffset": 134496,
      "componentType": 5126,
      "count": 11208,
      "max": [
        1.0,
        1.0,
        1.0
      ],
      "min": [
        -1.0,
        -1.0,
        -1.0
      ],
      "type": "VEC3"
    },
    {
      "bufferView": 4,
      "componentType": 5126,
      "count": 11208,
      "max": [
        0.9995861053466797,
        0.9999877214431763,
        0.9996092915534973,
        1.0
      ],
      "min": [
        -0.999586284160614,
        -0.9999999403953552,
        -0.9999832510948181,
        -1.0
      ],
      "type": "VEC4"
    },
    {
      "bufferView": 2,
      "componentType": 5126,
      "count": 11208,
      "max": [
        0.9957901239395142,
        0.9954412579536438
      ],
      "min": [
        0.004209946841001511,
        0.004209946841001511
      ],
      "type": "VEC2"
    },
    {
      "bufferView": 1,
      "componentType": 5125,
      "count": 54000,
      "type": "SCALAR"
    },
    {
      "bufferView": 3,
      "byteOffset": 268992,
      "componentType": 5126,
      "count": 6494,
      "max": [
        0.9952874183654785,
        3.002321481704712,
        1.1741224527359009
      ],
      "min": [
        -0.9955775737762451,
        1.7450217008590698,
        -0.9886425733566284
      ],
      "type": "VEC3"
    },
    {
      "bufferView": 3,
      "byteOffset": 346920,
      "componentType": 5126,
      "count": 6494,
      "max": [
        1.0,
        1.0,
        1.0
      ],
      "min": [
        -1.0,
        -1.0,
        -1.0
      ],
      "type": "VEC3"
    },
    {
      "bufferView": 4,
      "byteOffset": 179328,
      "componentType": 5126,
      "count": 6494,
      "max": [
        0.9999997615814209,
        1.0,
        1.0,
        1.0
      ],
      "min": [
        -0.9999997615814209,
        -1.0,
        -1.0,
        1.0
      ],
      "type": "VEC4"
    },
    {
      "bufferView": 2,
      "byteOffset": 89664,
      "componentType": 5126,
      "count": 6494,
      "max": [
        0.9953091740608215,
        0.99478679895401
      ],
      "min": [
        0.004690889734774828,
        0.004690889734774828
      ],
      "type": "VEC2"
    },
    {
      "bufferView": 1,
      "byteOffset": 216000,
      "componentType": 5125,
      "count": 32688,
      "type": "SCALAR"
    },
    {
      "bufferView": 3,
      "byteOffset": 424848,
      "componentType": 5126,
      "count": 22078,
      "max": [
        1.4945260286331177,
        1.8232357501983643,
        0.48446419835090637
      ],
      "min": [
        -1.4945260286331177,
        0.09240585565567017,
        -1.2687608003616333
      ],
      "type": "VEC3"
    },
    {
      "bufferView": 3,
      "byteOffset": 689784,
      "componentType": 5126,
      "count": 22078,
      "max": [
        1.0,
        0.9999628067016602,
        1.0
      ],
      "min": [
        -1.0,
        -0.9999624490737915,
        -1.0
      ],
      "type": "VEC3"
    },
    {
      "bufferView": 4,
      "byteOffset": 283232,
      "componentType": 5126,
      "count": 22078,
      "max": [
        0.9999877214431763,
        0.9840046763420105,
        1.0,
        1.0
      ],
      "min": [
        -0.9999877214431763,
        -0.9999916553497314,
        -1.0,
        -1.0
      ],
      "type": "VEC4"
    },
    {
      "bufferView": 2,
      "byteOffset": 141616,
      "componentType": 5126,
      "count": 22078,
      "max": [
        0.9939712882041931,
        0.9910716414451599
      ],
      "min": [
        0.00597600731998682,
        0.00597600731998682
      ],
      "type": "VEC2"
    },
    {
      "bufferView": 1,
      "byteOffset": 346752,
      "componentType": 5125,
      "count": 108216,
      "type": "SCALAR"
    },
    {
      "bufferView": 5,
      "componentType": 5126,
      "count": 26,
      "max": [
        1.0,
        0.6203983426094055,
        0.909778356552124,
        0.0,
        0.8797005414962769,
        1.0,
        0.36328062415122986,
        0.0,
        0.24766767024993896,
        0.4381195604801178,
        1.0,
        0.0,
        1.5905396938323975,
        1.0544555187225342,
        0.6857485175132751,
        1.0
      ],
      "min": [
        -0.9241313934326172,
        -0.6203983426094055,
        -0.909778356552124,
        0.0,
        -0.8797005414962769,
        -0.928924560546875,
        -0.4715230166912079,
        0.0,
        -0.24766767024993896,
        -0.9478027820587158,
        -0.9497595429420471,
        0.0,
        -1.5905396938323975,
        -2.105623960494995,
        -0.9723396301269531,
        1.0
      ],
      "type": "MAT4"
    },
    {
      "bufferView": 0,
      "componentType": 5123,
      "count": 11208,
      "type": "VEC4"
    },
    {
      "bufferView": 4,
      "byteOffset": 636480,
      "componentType": 5126,
      "count": 11208,
      "max": [
        1.0,
        0.4957226514816284,
        0.0,
        0.0
      ],
      "min": [
        0.5042774081230164,
        0.0,
        0.0,
        0.0
      ],
      "type": "VEC4"
    },
    {
      "bufferView": 0,
      "byteOffset": 89664,
      "componentType": 5123,
      "count": 6494,
      "type": "VEC4"
    },
    {
      "bufferView": 4,
      "byteOffset": 815808,
      "componentType": 5126,
      "count": 6494,
      "max": [
        1.0,
        0.0,
        0.0,
        0.0
      ],
      "min": [
        1.0,
        0.0,
        0.0,
        0.0
      ],
      "type": "VEC4"
    },
    {
      "bufferView": 0,
      "byteOffset": 141616,
      "componentType": 5123,
      "count": 22078,
      "type": "VEC4"
    },
    {
      "bufferView": 4,
      "byteOffset": 919712,
      "componentType": 5126,
      "count": 22078,
      "max": [
        1.0,
        0.49931007623672485,
        0.04210933297872543,
        0.0
      ],
      "min": [
        0.5006899833679199,
        0.0,
        0.0,
        0.0
      ],
      "type": "VEC4"
    }
  ],
  "asset": {
    "extras": {
      "author": "Zambur (https://sketchfab.com/Zambur)",
      "license": "CC-BY-4.0 (http://creativecommons.org/licenses/by/4.0/)",
      "source": "https://sketchfab.com/3d-models/small-robot-rigged-90f58ce19bf240f3b215617889fbaf0a",
      "title": "Small Robot (Rigged)"
    },
    "generator": "Sketchfab-12.65.0",
    "version": "2.0"
  },
  "bufferViews": [
    {
      "buffer": 0,
      "byteLength": 318240,
      "byteStride": 8,
      "name": "shortBufferViews",
      "target": 34962
    },
    {
      "buffer": 0,
      "byteLength": 779616,
      "byteOffset": 318240,
      "name": "floatBufferViews",
      "target": 34963
    },
    {
      "buffer": 0,
      "byteLength": 318240,
      "byteOffset": 1097856,
      "byteStride": 8,
      "name": "floatBufferViews",
      "target": 34962
    },
    {
      "buffer": 0,
      "byteLength": 954720,
      "byteOffset": 1416096,
      "byteStride": 12,
      "name": "floatBufferViews",
      "target": 34962
    },
    {
      "buffer": 0,
      "byteLength": 1272960,
      "byteOffset": 2370816,
      "byteStride": 16,
      "name": "floatBufferViews",
      "target": 34962
    },
    {
      "buffer": 0,
      "byteLength": 1664,
      "byteOffset": 3643776,
      "name": "floatBufferViews"
    }
  ],
  "buffers": [
    {
      "byteLength": 3645440,
      "uri": "scene.bin"
    }
  ],
  "images": [
    {
      "uri": "textures/RobotChest_baseColor.jpeg"
    },
    {
      "uri": "textures/RobotChest_metallicRoughness.png"
    },
    {
      "uri": "textures/RobotChest_emissive.jpeg"
    },
    {
      "uri": "textures/RobotChest_normal.jpeg"
    },
    {
      "uri": "textures/RobotHead_baseColor.jpeg"
    },
    {
      "uri": "textures/RobotHead_metallicRoughness.png"
    },
    {
      "uri": "textures/RobotHead_emissive.jpeg"
    },
    {
      "uri": "textures/RobotHead_normal.jpeg"
    },
    {
      "uri": "textures/RobotExtremities_baseColor.jpeg"
    },
    {
      "uri": "textures/RobotExtremities_metallicRoughness.png"
    },
    {
      "uri": "textures/RobotExtremities_emissive.jpeg"
    },
    {
      "uri": "textures/RobotExtremities_normal.jpeg"
    }
  ],
  "materials": [
    {
      "doubleSided": true,
      "emissiveFactor": [
        1.0,
        1.0,
        1.0
      ],
      "emissiveTexture": {
        "index": 2
      },
      "name": "RobotChest",
      "normalTexture": {
        "index": 3
      },
      "pbrMetallicRoughness": {
        "baseColorTexture": {
          "index": 0
        },
        "metallicRoughnessTexture": {
          "index": 1
        }
      }
    },
    {
      "doubleSided": true,
      "emissiveFactor": [
        1.0,
        1.0,
        1.0
      ],
      "emissiveTexture": {
        "index": 6
      },
      "name": "RobotHead",
      "normalTexture": {
        "index": 7
      },
      "pbrMetallicRoughness": {
        "baseColorTexture": {
          "index": 4
        },
        "metallicRoughnessTexture": {
          "index": 5
        }
      }
    },
    {
      "doubleSided": true,
      "emissiveFactor": [
        1.0,
        1.0,
        1.0
      ],
      "emissiveTexture": {
        "index": 10
      },
      "name": "RobotExtremities",
      "normalTexture": {
        "index": 11
      },
      "pbrMetallicRoughness": {
        "baseColorTexture": {
          "index": 8
        },
        "metallicRoughnessTexture": {
          "index": 9
        }
      }
    }
  ],
  "meshes": [
    {
      "name": "Object_0",
      "primitives": [
        {
          "attributes": {
            "JOINTS_0": 16,
            "NORMAL": 1,
            "POSITION": 0,
            "TANGENT": 2,
            "TEXCOORD_0": 3,
            "WEIGHTS_0": 17
          },
          "indices": 4,
          "material": 0,
          "mode": 4
        }
      ]
    },
    {
      "name": "Object_1",
      "primitives": [
        {
          "attributes": {
            "JOINTS_0": 18,
            "NORMAL": 6,
            "POSITION": 5,
            "TANGENT": 7,
            "TEXCOORD_0": 8,
            "WEIGHTS_0": 19
          },
          "indices": 9,
          "material": 1,
          "mode": 4
        }
      ]
    },
    {
      "name": "Object_2",
      "primitives": [
        {
          "attributes": {
            "JOINTS_0": 20,
            "NORMAL": 11,
            "POSITION": 10,
            "TANGENT": 12,
            "TEXCOORD_0": 13,
            "WEIGHTS_0": 21
          },
          "indices": 14,
          "material": 2,
          "mode": 4
        }
      ]
    }
  ],
  "nodes": [
    {
      "children": [
        1
      ],
      "matrix": [
        1.0,
        0.0,
        0.0,
        0.0,
        0.0,
        2.220446049250313e-16,
        -1.0,
        0.0,
        0.0,
        1.0,
        2.220446049250313e-16,
        0.0,
        0.0,
        0.0,
        0.0,
        1.0
      ],
      "name": "Sketchfab_model"
    },
    {
      "children": [
        2
      ],
      "name": "root"
    },
    {
      "children": [
        3
      ],
      "matrix": [
        1.0,
        0.0,
        0.0,
        0.0,
        0.0,
        2.220446049250313e-16,
        1.0,
        0.0,
        0.0,
        -1.0,
        2.220446049250313e-16,
        0.0,
        0.0,
        0.0,
        0.0,
        1.0
      ],
      "name": "GLTF_SceneRootNode"
    },
    {
      "children": [
        4
      ],
      "name": "Armature_26"
    },
    {
      "children": [
        5,
        7,
        8,
        9,
        6
      ],
      "name": "GLTF_created_0"
    },
    {
      "children": [
        10,
        11,
        12,
        13,
        17,
        19,
        21,
        23,
        24,
        28,
        30,
        32,
        34
      ],
      "name": "GLTF_created_0_rootJoint"
    },
    {
      "name": "Robot_25"
    },
    {
      "mesh": 0,
      "name": "Object_7",
      "skin": 0
    },
    {
      "mesh": 1,
      "name": "Object_8",
      "skin": 0
    },
    {
      "mesh": 2,
      "name": "Object_9",
      "skin": 0
    },
    {
      "name": "Base_0",
      "rotation": [
        0.052400726824998856,
        -1.0437704940425862e-17,
        -1.043770411324525e-17,
        0.9986261129379272
      ],
      "scale": [
        1.0,
        0.9999999403953552,
        0.9999999403953552
      ],
      "translation": [
        1.1184214763739656e-17,
        0.7255730628967285,
        -0.041211191564798355
      ]
    },
    {
      "name": "Chest_1",
      "rotation": [
        1.588131145630777e-23,
        -1.1920927533992653e-07,
        1.332221095677648e-16,
        1.0
      ],
      "translation": [
        -5.8562497261054676e-18,
        1.4988601207733154,
        0.013187585398554802
      ]
    },
    {
      "name": "Head_2",
      "translation": [
        4.675424404287909e-16,
        2.105623960494995,
        -0.004557627718895674
      ]
    },
    {
      "children": [
        14
      ],
      "name": "L.Shoulder_6",
      "rotation": [
        -3.970130180164233e-08,
        1.9283491781152406e-07,
        -0.9445335268974304,
        0.32841524481773376
      ],
      "translation": [
        0.6706452965736389,
        1.7159318923950195,
        1.8595754625039262e-07
      ]
    },
    {
      "children": [
        15
      ],
      "name": "L.Arm_5",
      "rotation": [
        0.050918903201818466,
        0.0026836832985281944,
        -0.11396820098161697,
        0.9921750426292419
      ],
      "scale": [
        1.0000001192092896,
        0.9999999403953552,
        0.9999999403953552
      ],
      "translation": [
        -1.1920928244535389e-07,
        0.4720671772956848,
        1.4210854715202004e-14
      ]
    },
    {
      "children": [
        16
      ],
      "name": "L.Arm2_4",
      "rotation": [
        0.0769585371017456,
        -0.011577997356653214,
        -0.022982152178883553,
        0.9967021346092224
      ],
      "scale": [
        1.0000001192092896,
        1.000000238418579,
        1.0
      ],
      "translation": [
        1.1697266444343768e-07,
        0.08675391972064972,
        -1.3694661404883846e-08
      ]
    },
    {
      "name": "L.Hand_3",
      "rotation": [
        0.0676824226975441,
        0.0013400756288319826,
        0.04242527484893799,
        0.9968035817146301
      ],
      "translation": [
        -1.0066597155855561e-07,
        0.07631823420524597,
        5.4949564898265635e-09
      ]
    },
    {
      "children": [
        18
      ],
      "name": "L.FingerRing_8",
      "rotation": [
        0.9710663557052612,
        0.17863377928733826,
        -0.07824297994375229,
        0.13783444464206696
      ],
      "scale": [
        1.0,
        1.0,
        1.0000001192092896
      ],
      "translation": [
        1.342185616493225,
        0.5738012194633484,
        0.27054643630981445
      ]
    },
    {
      "name": "L.FingerRing2_7",
      "rotation": [
        -0.014486894942820072,
        0.0018455084646120667,
        0.07769352197647095,
        0.9968703389167786
      ],
      "scale": [
        1.0,
        1.0000001192092896,
        1.0
      ],
      "translation": [
        -2.9516695576603524e-07,
        0.09403372555971146,
        -7.422494974207439e-08
      ]
    },
    {
      "children": [
        20
      ],
      "name": "L.FingerIndex_10",
      "rotation": [
        0.9512872695922852,
        0.18918021023273468,
        -0.060511525720357895,
        0.23580032587051392
      ],
      "scale": [
        1.000000238418579,
        1.0000001192092896,
        0.9999999403953552
      ],
      "translation": [
        1.334316372871399,
        0.6387969851493835,
        0.3687078356742859
      ]
    },
    {
      "name": "L.FingerIndex2_9",
      "rotation": [
        0.007803792599588633,
        -0.008284950628876686,
        0.07249845564365387,
        0.9973036050796509
      ],
      "scale": [
        0.9999999403953552,
        0.9999998807907104,
        0.9999998211860657
      ],
      "translation": [
        4.381625728910876e-08,
        0.09220689535140991,
        -2.7967836047082528e-08
      ]
    },
    {
      "children": [
        22
      ],
      "name": "L.FingerThumb_12",
      "rotation": [
        0.9378198385238647,
        -0.2713966965675354,
        0.04200778156518936,
        0.21230441331863403
      ],
      "scale": [
        1.0000001192092896,
        1.0000001192092896,
        1.0000001192092896
      ],
      "translation": [
        1.2082911729812622,
        0.6372619867324829,
        0.18142198026180267
      ]
    },
    {
      "name": "L.FingerThumb2_11",
      "rotation": [
        0.004727158695459366,
        0.07433486729860306,
        -0.13251028954982758,
        0.9883790016174316
      ],
      "scale": [
        1.0,
        0.9999999403953552,
        0.9999999403953552
      ],
      "translation": [
        2.60770320892334e-08,
        0.06476972252130508,
        0.0
      ]
    },
    {
      "name": "L.Leg_13",
      "rotation": [
        -0.6916666030883789,
        0.3492988049983978,
        -0.4183540344238281,
        0.4738856554031372
      ],
      "scale": [
        1.0,
        0.9999999403953552,
        1.0
      ],
      "translation": [
        0.789274275302887,
        0.7364593744277954,
        0.06606000661849976
      ]
    },
    {
      "children": [
        25
      ],
      "name": "R.Shoulder_17",
      "rotation": [
        -3.970130180164233e-08,
        -1.9283491781152406e-07,
        0.9445335268974304,
        0.32841524481773376
      ],
      "translation": [
        -0.6706452965736389,
        1.7159318923950195,
        1.8595754625039262e-07
      ]
    },
    {
      "children": [
        26
      ],
      "name": "R.Arm_16",
      "rotation": [
        0.050918903201818466,
        -0.0026836832985281944,
        0.11396820098161697,
        0.9921750426292419
      ],
      "scale": [
        1.0000001192092896,
        0.9999999403953552,
        0.9999999403953552
      ],
      "translation": [
        1.1920928244535389e-07,
        0.4720671772956848,
        1.4210854715202004e-14
      ]
    },
    {
      "children": [
        27
      ],
      "name": "R.Arm2_15",
      "rotation": [
        0.0769585371017456,
        0.011577997356653214,
        0.022982152178883553,
        0.9967021346092224
      ],
      "scale": [
        1.0000001192092896,
        1.000000238418579,
        1.0
      ],
      "translation": [
        -1.1697266444343768e-07,
        0.08675391972064972,
        -1.3694661404883846e-08
      ]
    },
    {
      "name": "R.Hand_14",
      "rotation": [
        0.0676824226975441,
        -0.0013400756288319826,
        -0.04242527484893799,
        0.9968035817146301
      ],
      "translation": [
        1.0066597155855561e-07,
        0.07631823420524597,
        5.4949564898265635e-09
      ]
    },
    {
      "children": [
        29
      ],
      "name": "R.FingerRing_19",
      "rotation": [
        0.9710663557052612,
        -0.17863377928733826,
        0.07824297994375229,
        0.13783444464206696
      ],
      "scale": [
        1.0,
        1.0,
        1.0000001192092896
      ],
      "translation": [
        -1.342185616493225,
        0.5738012194633484,
        0.27054643630981445
      ]
    },
    {
      "name": "R.FingerRing2_18",
      "rotation": [
        -0.014486894942820072,
        -0.0018455084646120667,
        -0.07769352197647095,
        0.9968703389167786
      ],
      "scale": [
        1.0,
        1.0000001192092896,
        1.0
      ],
      "translation": [
        2.9516695576603524e-07,
        0.09403372555971146,
        -7.422494974207439e-08
      ]
    },
    {
      "children": [
        31
      ],
      "name": "R.FingerIndex_21",
      "rotation": [
        0.9512872695922852,
        -0.18918021023273468,
        0.060511525720357895,
        0.23580032587051392
      ],
      "scale": [
        1.000000238418579,
        1.0000001192092896,
        0.9999999403953552
      ],
      "translation": [
        -1.334316372871399,
        0.6387969851493835,
        0.3687078356742859
      ]
    },
    {
      "name": "R.FingerIndex2_20",
      "rotation": [
        0.007803792599588633,
        0.008284950628876686,
        -0.07249845564365387,
        0.9973036050796509
      ],
      "scale": [
        0.9999999403953552,
        0.9999998807907104,
        0.9999998211860657
      ],
      "translation": [
        -4.381625728910876e-08,
        0.09220689535140991,
        -2.7967836047082528e-08
      ]
    },
    {
      "children": [
        33
      ],
      "name": "R.FingerThumb_23",
      "rotation": [
        0.9378198385238647,
        0.2713966965675354,
        -0.04200778156518936,
        0.21230441331863403
      ],
      "scale": [
        1.0000001192092896,
        1.0000001192092896,
        1.0000001192092896
      ],
      "translation": [
        -1.2082911729812622,
        0.6372619867324829,
        0.18142198026180267
      ]
    },
    {
      "name": "R.FingerThumb2_22",
      "rotation": [
        0.004727158695459366,
        -0.07433486729860306,
        0.13251028954982758,
        0.9883790016174316
      ],
      "scale": [
        1.0,
        0.9999999403953552,
        0.9999999403953552
      ],
      "translation": [
        -2.60770320892334e-08,
        0.06476972252130508,
        0.0
      ]
    },
    {
      "name": "R.Leg_24",
      "rotation": [
        -0.6916666030883789,
        -0.3492988049983978,
        0.4183540344238281,
        0.4738856554031372
      ],
      "scale": [
        1.0,
        0.9999999403953552,
        1.0
      ],
      "translation": [
        -0.789274275302887,
        0.7364593744277954,
        0.06606000661849976
      ]
    }
  ],
  "samplers": [
    {
      "magFilter": 9729,
      "minFilter": 9987,
      "wrapS": 10497,
      "wrapT": 10497
    }
  ],
  "scene": 0,
  "scenes": [
    {
      "name": "Sketchfab_Scene",
      "nodes": [
        0
      ]
    }
  ],
  "skins": [
    {
      "inverseBindMatrices": 15,
      "joints": [
        5,
        10,
        11,
        12,
        13,
        14,
        15,
        16,
        17,
        18,
        19,
        20,
        21,
        22,
        23,
        24,
        25,
        26,
        27,
        28,
        29,
        30,
        31,
        32,
        33,
        34
      ],
      "skeleton": 5
    }
  ],
  "textures": [
    {
      "sampler": 0,
      "source": 0
    },
    {
      "sampler": 0,
      "source": 1
    },
    {
      "sampler": 0,
      "source": 2
    },
    {
      "sampler": 0,
      "source": 3
    },
    {
      "sampler": 0,
      "source": 4
    },
    {
      "sampler": 0,
      "source": 5
    },
    {
      "sampler": 0,
      "source": 6
    },
    {
      "sampler": 0,
      "source": 7
    },
    {
      "sampler": 0,
      "source": 8
    },
    {
      "sampler": 0,
      "source": 9
    },
    {
      "sampler": 0,
      "source": 10
    },
    {
      "sampler": 0,
      "source": 11
    }
  ]
}
